<?xml version="1.0" standalone="no"?>
<!DOCTYPE svg PUBLIC "-//W3C//DTD SVG 20010904//EN"
 "http://www.w3.org/TR/2001/REC-SVG-20010904/DTD/svg10.dtd">
<svg version="1.0" xmlns="http://www.w3.org/2000/svg"
 width="400.000000pt" height="400.000000pt" viewBox="0 0 400.000000 400.000000"
 preserveAspectRatio="xMidYMid meet">
<metadata>
Created by potrace 1.14, written by Peter Selinger 2001-2017
</metadata>
<g transform="translate(0.000000,400.000000) scale(0.100000,-0.100000)"
fill="#000000" stroke="none">
<path d="M0 2244 l0 -1756 45 4 c25 2 45 0 45 -4 0 -5 -20 -8 -45 -8 l-45 0 0
-240 0 -240 2000 0 2000 0 0 239 0 240 -42 4 -43 4 43 1 42 2 0 1755 0 1755
-2000 0 -2000 0 0 -1756z m3897 1655 c19 -16 20 -3746 1 -3772 -12 -16 -134
-17 -1893 -17 -1759 0 -1881 1 -1892 17 -10 13 -13 406 -13 1884 0 1027 -3
1876 -6 1886 -5 15 -4 15 5 3 9 -13 14 -9 13 10 0 3 848 4 1885 2 1371 -1
1890 -5 1900 -13z"/>
<path d="M2422 3504 c-27 -19 -30 -54 -3 -54 10 0 21 7 25 15 5 13 46 23 46
11 0 -2 3 -11 6 -19 3 -10 -15 -38 -50 -76 -76 -83 -74 -91 19 -91 68 0 75 2
75 20 0 17 -7 20 -41 20 l-42 0 42 45 c29 32 41 53 41 75 0 59 -67 90 -118 54z"/>
<path d="M3352 3504 c-24 -17 -30 -62 -10 -82 9 -9 8 -16 -5 -30 -32 -35 -16
-83 33 -101 33 -11 55 -7 83 17 21 19 23 75 2 92 -14 12 -14 15 0 30 20 22 19
32 -6 64 -24 30 -63 34 -97 10z m66 -47 c4 -20 -25 -34 -40 -19 -15 15 -1 44
19 40 10 -2 19 -11 21 -21z m7 -88 c9 -26 -15 -52 -38 -43 -17 6 -23 44 -10
57 14 14 42 6 48 -14z"/>
<path d="M2996 2874 c-14 -13 -16 -64 -16 -404 0 -340 2 -391 16 -404 13 -14
63 -16 395 -16 243 0 387 4 400 10 18 10 19 26 19 414 0 359 -2 405 -16 410
-9 3 -188 6 -399 6 -335 0 -386 -2 -399 -16z m11 -26 c-3 -8 -6 -5 -6 6 -1 11
2 17 5 13 3 -3 4 -12 1 -19z m793 -6 c0 -13 -2 -14 -9 -3 -6 9 -11 10 -15 2
-5 -8 -114 -10 -374 -9 l-367 3 369 5 c284 4 370 8 374 18 5 17 22 5 22 -16z
m-770 -17 c0 -8 -7 -15 -15 -15 -26 0 -18 20 13 29 1 1 2 -6 2 -14z m770 -387
c0 -196 -3 -359 -7 -361 -5 -3 -8 163 -8 368 0 205 3 368 7 362 4 -7 8 -173 8
-369z m-803 -181 c-1 -100 -2 -18 -2 183 0 201 1 283 2 183 2 -101 2 -265 0
-366z m273 368 c10 -12 7 -20 -19 -47 -17 -17 -31 -41 -32 -52 -1 -18 -2 -17
-8 4 -5 19 -2 29 14 42 11 10 15 17 8 18 -7 0 -13 -5 -13 -11 0 -5 -5 -7 -11
-4 -14 9 -4 18 24 21 12 1 25 3 30 3 4 1 7 6 7 11 0 6 -6 10 -12 9 -7 -1 -20
-1 -28 0 -13 1 -13 2 0 11 20 13 25 12 40 -5z m46 3 c-10 -6 -22 -6 -26 -2 -5
5 3 10 18 11 22 1 24 0 8 -9z m38 -3 c-4 -8 -1 -15 7 -15 7 0 10 -2 7 -5 -3
-3 -13 -3 -22 1 -13 5 -14 9 -5 20 15 18 20 18 13 -1z m98 -5 c-4 -11 2 -9 19
5 l24 20 -20 -23 c-15 -18 -16 -25 -6 -31 8 -6 9 -11 3 -15 -6 -3 -13 3 -17
14 -4 11 -9 19 -13 16 -4 -2 -15 4 -25 14 -17 16 -16 17 11 16 22 -1 28 -5 24
-16z m52 -4 c-4 -10 2 -16 18 -18 22 -3 23 -7 23 -76 0 -51 4 -72 13 -72 6 0
12 -11 12 -25 0 -14 -6 -25 -13 -25 -8 0 -13 -10 -13 -22 1 -33 -48 -33 -52 0
-3 19 -9 22 -48 22 -40 0 -44 2 -44 24 0 14 23 57 50 98 28 40 46 74 40 76 -8
3 -7 8 1 18 15 18 20 18 13 0z m57 -6 c10 0 19 -3 20 -7 0 -5 2 -15 4 -24 1
-9 -3 -16 -10 -16 -7 0 -10 8 -8 17 3 12 -3 19 -22 24 -16 4 -23 11 -19 18 6
9 9 9 12 0 2 -7 12 -12 23 -12z m-153 -2 c18 -18 14 -32 -5 -17 -15 12 -16 12
-10 -4 4 -10 3 -16 -2 -12 -10 6 -11 45 -1 45 3 0 11 -5 18 -12z m-32 -43 c8
-13 13 -29 9 -35 -3 -5 -1 -10 5 -10 6 0 8 -5 4 -12 -6 -9 -9 -9 -12 0 -2 7
-14 12 -27 12 -12 0 -25 7 -29 15 -7 18 -36 9 -36 -12 0 -9 7 -13 18 -10 22 5
72 -20 72 -36 0 -6 9 2 20 18 11 17 20 24 20 17 0 -7 -7 -20 -15 -28 -8 -9
-15 -33 -15 -54 0 -24 5 -40 15 -44 8 -3 15 -12 15 -20 0 -18 38 -10 42 10 2
8 8 3 15 -12 11 -25 11 -26 -13 -20 -19 5 -24 4 -18 -6 4 -7 4 -10 -1 -6 -4 4
-14 3 -22 -4 -11 -8 -12 -7 -7 6 8 21 -5 21 -22 -1 -7 -10 -14 -13 -14 -7 0 6
7 17 15 24 8 7 15 17 15 23 0 6 -11 0 -24 -13 -36 -33 -100 -43 -122 -19 -10
11 -23 19 -31 19 -8 0 -11 5 -8 11 5 7 16 2 32 -13 17 -16 34 -22 56 -20 36 4
77 27 77 43 0 6 -12 1 -26 -10 -59 -46 -123 -8 -132 77 -9 96 19 142 88 142
31 0 43 -5 56 -25z m39 -5 c-3 -6 4 -10 17 -11 22 0 22 -1 3 -8 -12 -5 -23 -4
-27 2 -7 11 -2 27 8 27 3 0 2 -4 -1 -10z m-388 -122 c-2 -24 -4 -5 -4 42 0 47
2 66 4 43 2 -24 2 -62 0 -85z m573 18 c0 -3 -4 -8 -10 -11 -5 -3 -10 -1 -10 4
0 6 5 11 10 11 6 0 10 -2 10 -4z m-20 -81 c0 -8 -2 -15 -4 -15 -2 0 -6 7 -10
15 -3 8 -1 15 4 15 6 0 10 -7 10 -15z m-331 -39 c9 -11 6 -13 -15 -10 -14 1
-29 6 -32 10 -4 4 1 4 11 1 9 -4 17 -2 17 3 0 14 6 12 19 -4z m328 8 c-3 -3
-12 -4 -19 -1 -8 3 -5 6 6 6 11 1 17 -2 13 -5z m-47 -14 c0 -5 -2 -10 -4 -10
-3 0 -8 5 -11 10 -3 6 -1 10 4 10 6 0 11 -4 11 -10z m-498 -196 c2 -36 -1 -61
-7 -61 -6 0 -8 33 -6 86 5 88 8 82 13 -25z"/>
<path d="M3472 2475 c-10 -21 -9 -25 3 -25 9 0 15 10 15 25 0 14 -2 25 -3 25
-2 0 -9 -11 -15 -25z"/>
<path d="M3295 2459 c-11 -16 4 -59 20 -59 20 0 28 17 21 46 -7 25 -30 32 -41
13z m33 -27 c2 -7 -1 -12 -8 -12 -6 0 -9 4 -6 9 4 5 1 12 -4 14 -6 3 -5 4 2 3
6 -1 14 -8 16 -14z"/>
<path d="M578 2517 c-62 -94 -62 -107 -3 -107 41 0 45 -2 45 -25 0 -20 5 -25
25 -25 20 0 25 5 25 25 0 14 5 25 10 25 6 0 10 9 10 20 0 11 -4 20 -10 20 -6
0 -10 30 -10 70 0 66 -1 70 -22 70 -17 0 -35 -18 -70 -73z m42 -36 c0 -20 -6
-30 -20 -34 -11 -3 -20 -3 -20 0 0 6 33 63 37 63 2 0 3 -13 3 -29z"/>
<path d="M2417 2572 c-20 -21 -21 -45 -6 -73 8 -16 7 -25 -5 -38 -32 -35 -11
-85 42 -100 38 -11 72 5 91 43 12 25 11 31 -8 56 -17 24 -18 30 -6 40 37 31
-2 90 -58 90 -20 0 -41 -8 -50 -18z m73 -41 c0 -27 -19 -36 -37 -18 -18 18 -9
37 18 37 12 0 19 -7 19 -19z m8 -97 c4 -29 -23 -51 -43 -34 -16 13 -20 42 -8
54 14 14 48 1 51 -20z"/>
<path d="M595 1662 c-49 -10 -72 -65 -39 -93 14 -11 14 -13 0 -21 -25 -14 -21
-83 6 -102 33 -23 75 -20 103 9 29 28 31 51 9 84 -12 17 -13 26 -5 34 37 37
-17 101 -74 89z m35 -47 c15 -18 5 -35 -21 -35 -12 0 -19 7 -19 18 0 33 20 42
40 17z m3 -97 c14 -21 2 -48 -22 -48 -24 0 -37 36 -20 56 14 17 28 14 42 -8z"/>
<path d="M1406 1649 c-14 -11 -26 -26 -26 -34 0 -18 40 -27 47 -9 7 19 43 18
43 -1 0 -8 -9 -19 -20 -25 -24 -13 -28 -52 -4 -48 9 2 21 -5 28 -14 8 -14 7
-21 -6 -35 -16 -16 -19 -16 -36 0 -21 19 -62 23 -62 7 0 -24 50 -60 83 -60 62
0 99 69 60 112 -13 14 -14 21 -5 30 30 30 -10 98 -58 98 -10 0 -29 -9 -44 -21z"/>
<path d="M1593 1660 c-21 -9 -43 -38 -43 -59 0 -17 47 -13 54 4 3 8 15 15 26
15 35 0 23 -40 -30 -96 -27 -29 -50 -62 -50 -74 0 -20 4 -21 78 -18 69 3 77 5
77 23 0 16 -8 21 -38 23 l-37 3 34 41 c52 60 52 113 -1 137 -28 13 -40 13 -70
1z"/>
<path d="M2343 1660 c-27 -11 -40 -49 -22 -61 20 -12 27 -11 37 8 6 10 16 14
26 10 22 -9 20 -28 -4 -34 -25 -7 -28 -51 -4 -49 9 0 21 -7 27 -16 9 -14 8
-21 -5 -35 -16 -16 -19 -16 -36 0 -19 18 -62 23 -62 8 0 -4 9 -20 21 -35 28
-35 80 -36 114 -1 29 28 32 61 8 87 -13 14 -14 21 -5 30 20 20 13 55 -14 77
-29 22 -46 25 -81 11z"/>
<path d="M2523 1660 c-21 -9 -43 -38 -43 -59 0 -17 42 -13 55 6 15 20 45 11
45 -14 0 -9 -22 -40 -49 -68 -27 -27 -51 -59 -53 -70 -3 -18 3 -20 75 -23 77
-3 77 -3 77 23 0 23 -4 25 -41 25 l-41 0 41 40 c51 50 56 96 15 129 -29 23
-46 25 -81 11z"/>
<path d="M3278 1630 c-21 -20 -38 -43 -38 -49 0 -15 33 -14 48 1 9 9 12 -6 12
-70 0 -81 0 -82 25 -82 l26 0 -3 117 c-3 136 -10 145 -70 83z"/>
<path d="M3460 1657 c-13 -7 -30 -24 -37 -37 -17 -34 -16 -115 2 -150 27 -53
103 -53 130 0 29 55 -8 116 -65 108 -31 -5 -34 -1 -24 26 7 17 44 22 44 6 0
-5 11 -10 25 -10 33 0 32 23 -1 49 -31 24 -40 25 -74 8z m50 -122 c15 -18 5
-65 -13 -65 -18 0 -37 21 -37 40 0 16 18 40 31 40 4 0 12 -7 19 -15z"/>
<path d="M1510 668 c-27 -39 -50 -82 -50 -95 0 -21 4 -23 45 -23 37 0 45 -3
45 -19 0 -10 9 -21 20 -24 16 -4 20 0 20 19 0 15 6 24 15 24 20 0 19 36 -1 44
-8 3 -14 14 -13 23 0 10 1 42 0 71 -1 72 -19 68 -81 -20z m40 -43 c0 -31 -3
-35 -25 -35 l-25 0 22 35 c13 19 24 35 26 35 1 0 2 -16 2 -35z"/>
<path d="M2432 728 c-27 -14 -39 -54 -23 -80 9 -15 8 -23 -4 -41 -21 -31 -19
-54 10 -82 48 -49 129 -20 127 44 0 18 -6 39 -12 46 -9 10 -8 19 0 36 16 29
-1 66 -36 79 -30 12 -33 12 -62 -2z m56 -56 c3 -16 -2 -22 -17 -22 -26 0 -36
17 -20 36 16 19 33 13 37 -14z m2 -77 c18 -22 3 -57 -23 -53 -22 3 -33 28 -23
54 7 18 30 18 46 -1z"/>
<path d="M3255 715 c-31 -30 -31 -41 -3 -48 13 -4 26 0 33 10 15 20 47 10 39
-12 -3 -8 -12 -15 -20 -15 -22 0 -16 -34 8 -45 28 -13 32 -26 14 -50 -14 -19
-15 -19 -33 -2 -23 20 -63 23 -63 4 0 -25 45 -57 79 -57 64 0 105 76 61 115
-17 15 -17 19 -5 32 8 8 15 21 15 29 0 24 -47 64 -75 64 -14 0 -37 -11 -50
-25z"/>
<path d="M3436 719 c-34 -26 -35 -59 -2 -59 13 0 26 7 30 15 3 8 15 15 26 15
27 0 26 -33 -2 -63 -57 -59 -76 -84 -83 -104 -6 -23 -5 -23 74 -23 80 0 81 0
81 25 0 23 -4 25 -41 25 l-42 0 42 45 c50 54 55 93 15 124 -15 12 -37 21 -49
21 -12 0 -34 -9 -49 -21z"/>
<path d="M555 710 c-18 -20 -15 -50 6 -50 6 0 19 10 29 22 15 19 20 20 34 9
24 -20 20 -39 -16 -74 -39 -38 -78 -88 -78 -99 0 -4 36 -8 79 -8 70 0 79 2 77
18 -2 12 -15 18 -47 22 l-44 5 31 22 c61 44 77 128 29 147 -33 12 -82 6 -100
-14z"/>
</g>
</svg>
